<svg id="5e593aa9-e215-4844-9764-aa511fa8b860" data-name="圖層 2" xmlns="http://www.w3.org/2000/svg" width="500" height="500" viewBox="0 0 500 500">
  <defs>
    <style>
      .\34 665ccda-5513-4a8b-ac31-e0ea14ef047f {
        fill: #f4661e;
      }

      .\38 8641d47-8ad6-455b-a5c9-860b5a8b0715 {
        fill: #ffd248;
      }

      .\33 ac684ed-767d-4a0e-80f5-76243758f155 {
        fill: #1a1a1a;
      }

      .c4f88c1a-8146-4a36-93e2-f0bcd15e5913 {
        fill: #31c0d8;
      }
    </style>
  </defs>
  <title>icon</title>
  <g>
    <path class="4665ccda-5513-4a8b-ac31-e0ea14ef047f" d="M45.36,183.18l7.71,8.2A93.62,93.62,0,0,1,160,188.58L168,181.1A105,105,0,0,0,45.36,183.18Z"/>
    <circle class="88641d47-8ad6-455b-a5c9-860b5a8b0715" cx="390.47" cy="281.61" r="89.53"/>
    <circle class="88641d47-8ad6-455b-a5c9-860b5a8b0715" cx="109.53" cy="278.95" r="89.53"/>
    <path class="3ac684ed-767d-4a0e-80f5-76243758f155" d="M385.21,269l-52.3-133.26,5.84-2.14c2.94-1.08,29.12-10.23,44,.18,4.38,3.05,9.59,9.13,9.59,20.74H380.21c0-7.71-3.3-10-4.39-10.77-6.34-4.42-18.77-2.61-26.91-.53l47.62,121.35Z"/>
    <rect class="3ac684ed-767d-4a0e-80f5-76243758f155" x="125.46" y="271.86" width="114.92" height="12.16"/>
    <rect class="3ac684ed-767d-4a0e-80f5-76243758f155" x="206.23" y="152.27" width="12.16" height="123.69" transform="translate(-85.97 169.96) rotate(-36.82)"/>
    <rect class="3ac684ed-767d-4a0e-80f5-76243758f155" x="172.93" y="159.17" width="180.89" height="12.16"/>
    <rect class="3ac684ed-767d-4a0e-80f5-76243758f155" x="236.33" y="208.96" width="127.62" height="12.16" transform="translate(-50.38 331.07) rotate(-53.94)"/>
    <rect class="3ac684ed-767d-4a0e-80f5-76243758f155" x="89.46" y="205.15" width="115.76" height="12.16" transform="translate(-109.98 221.86) rotate(-57.47)"/>
    <rect class="3ac684ed-767d-4a0e-80f5-76243758f155" x="171.23" y="150.34" width="12.16" height="18.52"/>
    <path class="c4f88c1a-8146-4a36-93e2-f0bcd15e5913" d="M148.75,144.49a7,7,0,0,0,7,7h40.45a7,7,0,0,0,7-7h0a7,7,0,0,0-7-7H155.74a7,7,0,0,0-7,7h0Z"/>
    <path class="3ac684ed-767d-4a0e-80f5-76243758f155" d="M411.16,210.48l-1.55,7.7a65.33,65.33,0,0,1,44.64,59.89l7.46,1.52A73.24,73.24,0,0,0,411.16,210.48Z"/>
    <g>
      <circle class="c4f88c1a-8146-4a36-93e2-f0bcd15e5913" cx="397.66" cy="279.39" r="14.92"/>
      <path class="c4f88c1a-8146-4a36-93e2-f0bcd15e5913" d="M397.66,300.39a21,21,0,1,1,21-21A21,21,0,0,1,397.66,300.39Zm0-29.84a8.84,8.84,0,1,0,8.84,8.84A8.85,8.85,0,0,0,397.66,270.55Z"/>
    </g>
    <g>
      <circle class="c4f88c1a-8146-4a36-93e2-f0bcd15e5913" cx="110.54" cy="275.88" r="14.92"/>
      <path class="c4f88c1a-8146-4a36-93e2-f0bcd15e5913" d="M110.54,296.88a21,21,0,1,1,21-21A21,21,0,0,1,110.54,296.88Zm0-29.84a8.84,8.84,0,1,0,8.84,8.84A8.85,8.85,0,0,0,110.54,267Z"/>
    </g>
    <rect class="3ac684ed-767d-4a0e-80f5-76243758f155" x="256.8" y="289.17" width="12.16" height="24.5" transform="matrix(0.93, -0.37, 0.37, 0.93, -92.3, 117.56)"/>
    <path class="4665ccda-5513-4a8b-ac31-e0ea14ef047f" d="M253.2,322.93a5.67,5.67,0,0,0,7.48,3l20.93-9.07a5.71,5.71,0,0,0,3-7.5h0a5.69,5.69,0,0,0-7.49-3l-20.92,9.08a5.68,5.68,0,0,0-3,7.49h0Z"/>
    <g>
      <circle class="4665ccda-5513-4a8b-ac31-e0ea14ef047f" cx="255.08" cy="274.72" r="14.7"/>
      <path class="4665ccda-5513-4a8b-ac31-e0ea14ef047f" d="M255.08,295.5a20.78,20.78,0,1,1,20.78-20.78A20.8,20.8,0,0,1,255.08,295.5Zm0-29.4a8.62,8.62,0,1,0,8.62,8.62A8.63,8.63,0,0,0,255.08,266.1Z"/>
    </g>
  </g>
</svg>
